<?xml version="1.0" encoding="UTF-8"?>
<svg id="Layer_7" data-name="Layer 7" xmlns="http://www.w3.org/2000/svg" viewBox="0 0 300 300">
  <defs>
    <style>
      .cls-1 {
        fill: #fff;
        stroke-width: 0px;
      }
    </style>
  </defs>
  <path class="cls-1" d="M236.09,0H63.91C28.61,0,0,28.61,0,63.91v172.18c0,35.3,28.61,63.91,63.91,63.91h172.18c35.3,0,63.91-28.61,63.91-63.91V63.91c0-35.3-28.61-63.91-63.91-63.91ZM272.66,229.73c0,23.88-19.36,43.24-43.24,43.24H70.03c-23.78,0-43.06-19.28-43.06-43.06V70.21c0-23.72,19.23-42.94,42.94-42.94h159.29c24,0,43.46,19.46,43.46,43.46v159Z"/>
  <path class="cls-1" d="M149.81,73.56c-42.28,0-76.55,34.27-76.55,76.55s34.27,76.55,76.55,76.55,76.55-34.27,76.55-76.55-34.27-76.55-76.55-76.55ZM149.81,201.18c-28.2,0-51.06-22.86-51.06-51.06s22.86-51.06,51.06-51.06,51.06,22.86,51.06,51.06-22.86,51.06-51.06,51.06Z"/>
  <circle class="cls-1" cx="229.95" cy="70.12" r="18.27"/>
</svg>