<?xml version="1.0" encoding="UTF-8"?>
<svg id="Layer_2" data-name="Layer 2" xmlns="http://www.w3.org/2000/svg" viewBox="0 0 299.97 300">
  <defs>
    <style>
      .cls-1 {
        fill: #fff;
        stroke-width: 0px;
      }
    </style>
  </defs>
  <path class="cls-1" d="M299.91,34.89c0-4.94-.98-9.79-3.2-14.28C290.07,7.17,279.12.42,264.24.11c-9.79-.2-19.58-.06-29.37-.06-66.33,0-132.65,0-198.98.03-2.26,0-4.53.13-6.76.54C11.89,3.85.1,18.03.08,34.95-.04,110,0,185.04.03,260.09c0,3.49.02,7.02.49,10.47,2.26,16.34,17.39,29.42,33.92,29.43,38.52.02,77.05,0,115.57,0h0c36.59,0,73.19.02,109.78,0,3.2,0,6.43-.06,9.61-.4,16.25-1.72,30.45-15.78,30.48-34.2.14-76.83.07-153.66.02-230.5ZM89.08,250.91c-.06,1.94-1.69,3.48-3.63,3.48-11.72,0-23.44-.03-35.16-.02-6.14,0-5.93.57-5.93-5.92.02-21.73,0-43.46,0-65.18,0-22.51,0-45.03,0-67.54,0-3.47.43-3.87,3.98-3.87,12.08,0,24.16.01,36.24,0,3.94,0,4.46.47,4.47,4.39,0,43.46,0,86.91,0,130.37,0,1.44.06,2.88.02,4.31ZM66.75,92.68c-14.18-.04-25.81-11.63-25.79-25.72.02-15.61,14.3-28.19,30.38-25.39,10.53,1.83,18.97,10.26,20.82,20.79,2.83,16.11-9.8,30.37-25.4,30.32ZM254.72,251.07c0,1.82-1.47,3.3-3.3,3.3-12.71.02-25.43.02-38.14,0-2.58,0-2.97-.44-2.97-3.26,0-23.37.11-46.74-.07-70.11-.04-5.27-.53-10.61-1.55-15.78-2.2-11.2-12.74-19-24.07-17.61-7.19.88-13.67,3.06-18.02,9.28-3.11,4.45-4.49,9.56-4.9,14.88-.4,5.26-.55,10.56-.56,15.84-.05,20.86,0,41.72.02,62.59,0,2.31-1.87,4.18-4.18,4.18-12.36,0-24.73,0-37.09,0-3.06,0-3.45-.38-3.45-3.46,0-45.1,0-90.19,0-135.29,0-3.16.61-3.77,3.73-3.77,11.72,0,23.44,0,35.16,0,2.11,0,3.83,1.71,3.82,3.83,0,4.85,0,9.7,0,15.2,1.75-2.08,3.11-3.72,4.5-5.34,11.16-13.03,25.44-18.28,42.35-17.05,6.79.5,13.49,1.34,19.87,3.87,13.42,5.32,21.06,15.6,24.96,29.09,2.66,9.19,3.76,18.63,3.81,28.14.16,27.16.08,54.32.08,81.47Z"/>
</svg>