<?xml version="1.0" encoding="UTF-8"?>
<svg id="Layer_4" xmlns="http://www.w3.org/2000/svg" viewBox="0 0 300 300">
  <defs>
    <style>
      .cls-1 {
        fill: none;
      }

      .cls-2 {
        fill: #fff;
      }
    </style>
  </defs>
  <rect class="cls-1" x="63" y="90" width="171" height="126"/>
  <g>
    <path class="cls-2" d="M150.03,166.13c-.75,0-1.53-.04-2.32-.13-4.15-.46-16.79-1.85-53.37-33.15-8.32-7.12-15.93-14.11-21.68-19.54v84.76c0,.42.35.77.77.77h153.13c.42,0,.77-.34.77-.77v-84.27c-13.5,13.44-37.01,35.42-55.55,45.27-8.97,4.76-16.08,7.08-21.75,7.08Z"/>
    <path class="cls-2" d="M150.03,151.51c1.79,0,6.09-.7,14.89-5.37,15.23-8.09,35.06-26.09,48.27-38.97h-125.74c21.87,20.24,49.84,42.97,61.87,44.3.26.03.5.04.71.04Z"/>
    <path class="cls-2" d="M236.09,0H63.91C28.61,0,0,28.61,0,63.91v172.18c0,35.3,28.61,63.91,63.91,63.91h172.18c35.3,0,63.91-28.61,63.91-63.91V63.91c0-35.3-28.61-63.91-63.91-63.91ZM243.67,198.06c0,9.43-7.67,17.1-17.1,17.1H73.44c-9.43,0-17.1-7.67-17.1-17.1v-90.13c0-4.57,1.78-8.86,5.01-12.09,3.23-3.23,7.52-5.01,12.09-5.01h153.13c4.47,0,8.69,1.71,11.9,4.82,3.35,3.25,5.2,7.61,5.2,12.28v90.13Z"/>
  </g>
</svg>