<?xml version="1.0" encoding="UTF-8"?>
<svg id="Layer_2" xmlns="http://www.w3.org/2000/svg" viewBox="0 0 300 300">
  <defs>
    <style>
      .cls-1 {
        fill: #fff;
      }
    </style>
  </defs>
  <path class="cls-1" d="M230.72,122.96c-2.63-8.08-6.4-15.59-11.32-22.51-5.87-8.26-12.98-15.28-21.34-21.02-6.65-4.57-13.82-8.1-21.5-10.59-8.8-2.84-17.82-4.19-27.06-4.08-5.57.07-11.07.67-16.52,1.82-7.71,1.63-15.05,4.31-22,8.01-8,4.26-15.12,9.67-21.39,16.21-3.41,3.56-6.5,7.38-9.24,11.48-4.42,6.61-7.85,13.69-10.27,21.27-2.43,7.59-3.72,15.37-3.95,23.34-.1,3.54.04,7.07.39,10.59.56,5.64,1.67,11.17,3.33,16.59,1.37,4.45,3.11,8.76,5.18,12.93,1.68,3.38,3.65,6.59,5.68,9.76.19.3.28.56.18.92-1.87,6.78-3.72,13.56-5.58,20.34-.93,3.41-1.86,6.81-2.82,10.33.59-.15,1.09-.27,1.59-.4,9.98-2.62,19.95-5.24,29.93-7.85.24-.06.56,0,.78.11.66.35,1.29.76,1.94,1.14,4.07,2.44,8.29,4.58,12.7,6.31,10.81,4.25,22.02,6.22,33.64,5.87,4.14-.13,8.25-.54,12.32-1.27,8.49-1.53,16.57-4.29,24.2-8.32,11-5.81,20.29-13.66,27.87-23.53,5.79-7.54,10.18-15.82,13.15-24.85,2.95-8.96,4.36-18.15,4.21-27.59-.05-3.49-.3-6.96-.77-10.41-.67-4.96-1.79-9.83-3.34-14.6ZM199.77,186.24c-.72,1.72-2,3.07-3.38,4.29-3.54,3.11-7.54,5.47-12.13,6.63-2.05.52-4.21.64-6.34.75-4.37.22-8.58-.63-12.71-2.03-4.8-1.63-9.56-3.35-14.17-5.47-5.56-2.55-10.69-5.79-15.54-9.5-4.18-3.19-8.08-6.7-11.76-10.46-5.2-5.32-9.89-11.05-14.15-17.14-1.84-2.62-3.67-5.25-5.19-8.07-2.02-3.72-3.68-7.59-4.64-11.72-1.58-6.8-1.06-13.41,1.91-19.76,1.42-3.04,3.5-5.61,5.79-8.04,1.65-1.76,3.53-3.09,5.96-3.37,1.26-.15,2.56-.03,3.84-.03,1,0,2,0,3,0,1.45-.02,2.62.55,3.4,1.76.59.92,1.13,1.89,1.56,2.9,2.44,5.82,4.84,11.67,7.25,17.5.24.57.51,1.12.75,1.69.55,1.3.47,2.57-.11,3.87-.95,2.15-2.3,4.01-3.84,5.75-.99,1.12-1.98,2.26-2.99,3.36-1.46,1.58-1.63,2.89-.49,4.8,2.97,5.01,6.4,9.67,10.42,13.9,4.9,5.15,10.48,9.43,16.79,12.71,2.66,1.38,5.41,2.58,8.15,3.8,1.9.84,3.24.53,4.56-1.06,2.72-3.29,5.38-6.63,8.06-9.94.25-.31.49-.64.76-.92.8-.83,1.79-1.13,2.92-.91,1.72.34,3.29,1.09,4.85,1.84,5.06,2.43,10.11,4.89,15.16,7.34.96.47,1.9.96,2.85,1.45,1.12.59,1.65,1.51,1.68,2.79.09,3.93-.69,7.69-2.21,11.3Z"/>
  <path class="cls-1" d="M236.09,0H63.91C28.61,0,0,28.61,0,63.91v172.18c0,35.3,28.61,63.91,63.91,63.91h172.18c35.3,0,63.91-28.61,63.91-63.91V63.91c0-35.3-28.61-63.91-63.91-63.91ZM252,152.45c-.03.13-.08.25-.08.38-.17,5.46-.83,10.86-1.89,16.22-1.95,9.85-5.32,19.19-10.07,28.03-6.07,11.29-13.99,21.09-23.74,29.4-10.56,8.99-22.46,15.57-35.7,19.7-9.91,3.09-20.06,4.61-30.44,4.52-3.19-.03-6.39-.24-9.58-.5-4.77-.39-9.48-1.25-14.13-2.39-8.36-2.04-16.34-5.1-23.92-9.18-.36-.2-.69-.23-1.09-.13-4.24,1.12-8.48,2.23-12.71,3.34-13.21,3.47-26.43,6.94-39.64,10.41-.27.07-.54.12-.87.2.06-.24.09-.4.13-.56.87-3.17,1.73-6.33,2.6-9.5,3.83-14,7.66-27.99,11.49-41.99.1-.37.08-.65-.12-.99-2.15-3.77-4.04-7.66-5.69-11.67-3-7.29-5.11-14.83-6.34-22.62-.89-5.59-1.29-11.22-1.24-16.88.04-4.61.38-9.19,1.04-13.75.87-5.93,2.24-11.75,4.14-17.43,3.54-10.57,8.68-20.3,15.42-29.18,4.84-6.38,10.36-12.1,16.54-17.19,6.38-5.25,13.29-9.66,20.74-13.22,9.47-4.52,19.4-7.51,29.81-8.91,5.73-.77,11.47-1.09,17.25-.89,5.36.18,10.67.78,15.93,1.78,9.43,1.8,18.4,4.9,26.94,9.29,10.33,5.3,19.46,12.22,27.44,20.64,7.5,7.92,13.6,16.81,18.22,26.69,5.57,11.89,8.66,24.4,9.39,37.5.04.76.11,1.52.16,2.28v6.6Z"/>
</svg>